<svg xmlns="http://www.w3.org/2000/svg" viewBox="0 0 95.47 96.23"><defs><style>.cls-1{fill:#663606;}</style></defs><g id="圖層_2" data-name="圖層 2"><g id="圖層_1-2" data-name="圖層 1"><path class="cls-1" d="M0,50.61H3.49c7,0,13.93,0,20.9,0,.81,0,1,.26,1.15,1a22.45,22.45,0,0,0,43.69,3.16A29.73,29.73,0,0,0,70,51.41c.1-.51.22-.82.87-.82,8,0,15.92,0,23.88,0,.18,0,.36,0,.73.08C94.13,66.53,87.3,79.31,74,87.94c-16.21,10.5-33.28,11-50,1.51C9.17,81.06,1.55,67.71,0,50.61Z" transform="translate(0 0)"/><path class="cls-1" d="M25.3,45.57H0C1.27,30.32,7.64,17.84,20.19,9.19,36.57-2.11,54-3,71.36,6.69,86.27,15.06,93.9,28.45,95.47,45.54c-.49,0-.82.06-1.15.06-7.74,0-15.49,0-23.23,0-.81,0-1-.25-1.16-1A22.43,22.43,0,0,0,26,42.26C25.76,43.34,25.55,44.44,25.3,45.57Z" transform="translate(0 0)"/><path class="cls-1" d="M47.74,65.73A17.62,17.62,0,1,1,65.33,48,17.59,17.59,0,0,1,47.74,65.73Zm7.51-17.56a7.51,7.51,0,1,0-7.59,7.46A7.5,7.5,0,0,0,55.25,48.17Z" transform="translate(0 0)"/></g></g></svg>