<svg xmlns="http://www.w3.org/2000/svg" viewBox="0 0 93.42 90.67"><defs><style>.cls-1{fill:#663606;}</style></defs><g id="圖層_2" data-name="圖層 2"><g id="圖層_1-2" data-name="圖層 1"><path class="cls-1" d="M64,87.43a56.87,56.87,0,0,1-16.25,3.12,84.4,84.4,0,0,1-33.14-4.84C10.32,84.2,6,82.83,1.81,81.24c-2.09-.78-2.27-1.66-1-3.55C5.47,70.46,8.07,62.4,9.72,54c1.49-7.59,1.88-15.52,5.12-22.63,4.43-9.7,11.28-16.87,22.41-19,7.4-1.41,14.55-1.35,21.46,2a21.89,21.89,0,0,1,9.19,8.23c.44.69.77,1.76,1.71,1.62s.82-1.21,1-1.9q3-10,5.87-20.1c.72-2.51,1-2.68,3.27-1.34,2.42,1.43,4.78,3,7.23,4.32,1.6.89,1.77,1.67.57,3.15-4.51,5.54-8.9,11.18-13.32,16.78-1.6,2-1.51,2.26,1,2.84.5.12,1,.28,1.5.35,8.82,1.11,13.87,6,15.4,14.82,1.36,7.91,2.18,15.74-.61,23.49a23.23,23.23,0,0,1-10,12.54c-.51.3-.93.85-1.57.5-.84-.45-.41-1.24-.25-1.83a20,20,0,0,0,.37-9.13c-1.53-7.74-7.91-10.76-15.74-10S50.21,64.73,50.57,74c.2,5,4.8,10.4,10.61,12.16A5.72,5.72,0,0,1,64,87.43Z"/></g></g></svg>