<?xml version="1.0" encoding="UTF-8"?><svg id="_層_2" xmlns="http://www.w3.org/2000/svg" viewBox="0 0 58.45 48.18"><defs><style>.cls-1{fill:#78b0b5;}.cls-2{fill:#333;}.cls-3{fill:#e38a28;}</style></defs><g id="_層_1-2"><g><g><path class="cls-2" d="M52.55,13.55c-2.48-2.48-5.9-4.01-9.69-4.01-2.41,0-4.73,.64-6.76,1.79-2.03,1.15-3.76,2.82-5,4.89l.2,.12c.98,.59,2.25,.39,2.99-.47,.85-.99,1.87-1.82,2.99-2.46,1.67-.95,3.59-1.47,5.58-1.47,3.12,0,5.95,1.26,7.99,3.31,2.04,2.04,3.31,4.87,3.31,7.99s-1.26,5.95-3.31,7.99c-2.04,2.04-4.87,3.31-7.99,3.31s-5.95-1.26-7.99-3.31c-5.67-5.67-.93-11.29-7.32-17.68-2.48-2.48-5.9-4.01-9.69-4.01s-7.21,1.53-9.69,4.01c-2.48,2.48-4.01,5.9-4.01,9.69s1.53,7.21,4.01,9.69c2.48,2.48,5.9,4.01,9.69,4.01,2.41,0,4.73-.64,6.76-1.79,1.96-1.11,3.65-2.71,4.88-4.69,.07-.11,.03-.25-.08-.32-.98-.59-2.25-.39-2.99,.48-.85,.99-1.86,1.82-2.99,2.46-1.67,.95-3.59,1.47-5.58,1.47-3.12,0-5.95-1.26-7.99-3.31-2.04-2.04-3.31-4.87-3.31-7.99s1.26-5.95,3.31-7.99c2.04-2.04,4.87-3.31,7.99-3.31s5.95,1.26,7.99,3.31c5.67,5.67,.93,11.29,7.32,17.68,2.48,2.48,5.9,4.01,9.69,4.01s7.21-1.53,9.69-4.01c2.48-2.48,4.01-5.9,4.01-9.69s-1.53-7.21-4.01-9.69Z"/><path class="cls-2" d="M5.25,11.92c0-.49-.4-.88-.88-.88h-.85v-.85c0-.49-.4-.88-.88-.88s-.88,.4-.88,.88v.85H.88c-.49,0-.88,.4-.88,.88s.4,.88,.88,.88h.85v.85c0,.49,.4,.88,.88,.88s.88-.4,.88-.88v-.85h.85c.49,0,.88-.4,.88-.88Z"/><path class="cls-2" d="M10.09,7.38h.85v.85c0,.49,.4,.88,.89,.88s.88-.4,.88-.88v-.85h.85c.49,0,.88-.4,.88-.88s-.4-.88-.88-.88h-.85v-.85c0-.49-.4-.88-.88-.88s-.89,.4-.89,.88v.85h-.85c-.49,0-.88,.4-.88,.88s.4,.88,.88,.88Z"/><path class="cls-2" d="M.88,3.51h.85v.85c0,.49,.4,.88,.88,.88s.88-.4,.88-.88v-.85h.85c.49,0,.88-.4,.88-.88s-.4-.88-.88-.88h-.85V.88c0-.49-.4-.88-.88-.88s-.88,.4-.88,.88v.85H.88c-.49,0-.88,.4-.88,.88s.4,.88,.88,.88Z"/><path class="cls-1" d="M43.23,25.78c-1.76-.22-3.24,1.26-3.02,3.02,.15,1.2,1.12,2.17,2.32,2.32,1.76,.22,3.24-1.26,3.02-3.02-.15-1.2-1.12-2.17-2.32-2.32Z"/><path class="cls-1" d="M43.23,15.59c-1.76-.22-3.24,1.26-3.02,3.02,.15,1.2,1.12,2.17,2.32,2.32,1.76,.22,3.24-1.26,3.02-3.02-.15-1.2-1.12-2.17-2.32-2.32Z"/><path class="cls-1" d="M37.43,20.68c-1.2,.15-2.17,1.12-2.32,2.32-.22,1.76,1.26,3.24,3.02,3.02,1.2-.15,2.17-1.12,2.32-2.32,.22-1.76-1.26-3.24-3.02-3.02Z"/><path class="cls-1" d="M48.32,26.02c1.2-.15,2.17-1.12,2.32-2.32,.22-1.76-1.26-3.24-3.02-3.02-1.2,.15-2.17,1.12-2.32,2.32-.22,1.76,1.26,3.24,3.02,3.02Z"/><path class="cls-3" d="M17.75,31.14c1.44,0,2.62-1.18,2.62-2.62v-2.54h2.54c1.44,0,2.62-1.18,2.62-2.62s-1.18-2.62-2.62-2.62h-2.54v-2.54c0-1.44-1.18-2.62-2.62-2.62s-2.62,1.18-2.62,2.62v2.54h-2.54c-1.44,0-2.62,1.18-2.62,2.62s1.18,2.62,2.62,2.62h2.54v2.54c0,1.44,1.18,2.62,2.62,2.62Z"/></g><g><g><path class="cls-2" d="M3.33,46.44h-1.21v-6.06h2.43c.22,0,.44,.03,.64,.09,.21,.06,.4,.14,.58,.25,.18,.11,.34,.23,.49,.38,.15,.15,.27,.31,.38,.49,.11,.18,.19,.37,.25,.58s.09,.42,.09,.64c0,.33-.06,.65-.19,.94-.13,.29-.3,.55-.52,.77s-.48,.39-.77,.52c-.29,.13-.61,.19-.94,.19h-1.21v1.21Zm0-4.85v2.43h1.21c.17,0,.32-.03,.47-.1s.27-.15,.38-.26c.11-.11,.2-.24,.26-.39s.1-.3,.1-.47-.03-.32-.1-.47c-.06-.15-.15-.28-.26-.39-.11-.11-.24-.2-.38-.26s-.3-.1-.47-.1h-1.21Z"/><path class="cls-2" d="M8.71,46.44h-1.16v-6.33h1.16v6.33Z"/><path class="cls-2" d="M13.98,46.44h-.28l-.45-.62c-.11,.1-.23,.19-.35,.28-.12,.09-.25,.16-.39,.22-.13,.06-.27,.11-.42,.15-.14,.04-.29,.06-.43,.06-.32,0-.62-.05-.9-.16s-.53-.26-.74-.47c-.21-.21-.38-.46-.5-.75s-.18-.63-.18-1.01c0-.35,.06-.68,.18-.97,.12-.29,.29-.55,.5-.76,.21-.21,.46-.38,.74-.49,.28-.12,.58-.18,.9-.18,.15,0,.29,.02,.44,.05,.14,.04,.28,.09,.42,.15,.13,.07,.26,.14,.39,.23s.24,.18,.34,.28l.45-.54h.28v4.52Zm-1.16-2.3c0-.16-.03-.31-.09-.46-.06-.15-.14-.28-.25-.39-.1-.11-.23-.21-.37-.28s-.29-.1-.45-.1-.31,.03-.45,.08c-.14,.05-.26,.13-.36,.24-.1,.1-.18,.23-.24,.39-.06,.15-.09,.33-.09,.53s.03,.37,.09,.53c.06,.15,.14,.28,.24,.39,.1,.1,.22,.18,.36,.24s.29,.08,.45,.08,.31-.03,.45-.1,.26-.16,.37-.27c.1-.11,.19-.25,.25-.39,.06-.15,.09-.3,.09-.46Z"/><path class="cls-2" d="M15.95,48.17v-1.16h.64c.11,0,.22,0,.33-.05,.1-.04,.2-.09,.29-.15,.09-.06,.17-.14,.23-.23s.12-.18,.17-.29c-.13,.05-.26,.11-.39,.16-.13,.05-.26,.08-.4,.08-.28,0-.54-.05-.79-.15-.25-.1-.46-.24-.64-.42s-.33-.4-.44-.66-.16-.55-.16-.88v-2.5h1.15v2.5c0,.16,.02,.3,.07,.42,.05,.12,.11,.22,.19,.3,.08,.08,.17,.14,.28,.18,.11,.04,.22,.06,.34,.06s.23-.03,.34-.08c.11-.05,.2-.13,.28-.22,.08-.09,.14-.19,.19-.31,.04-.11,.07-.23,.07-.35v-2.5h1.16v3.96c0,.32-.06,.62-.19,.9-.12,.28-.29,.52-.5,.73-.21,.21-.46,.37-.73,.49-.28,.12-.58,.18-.9,.18h-.59Z"/><path class="cls-2" d="M28.22,43.44c0,.29-.04,.56-.11,.83-.08,.27-.18,.52-.32,.75-.13,.23-.3,.44-.49,.64-.19,.19-.4,.36-.63,.49-.23,.14-.48,.24-.75,.32-.27,.08-.54,.11-.83,.11s-.56-.04-.83-.11c-.27-.07-.52-.18-.75-.32s-.45-.3-.64-.49c-.19-.19-.36-.4-.49-.64-.14-.23-.24-.48-.32-.75-.08-.27-.11-.54-.11-.83s.04-.56,.11-.83c.07-.27,.18-.52,.32-.75s.3-.44,.49-.63c.19-.19,.4-.35,.64-.49,.23-.13,.48-.24,.75-.32,.27-.07,.54-.11,.83-.11s.57,.04,.83,.11c.27,.08,.52,.18,.75,.32,.23,.14,.44,.3,.63,.49,.19,.19,.36,.4,.49,.63,.14,.23,.24,.48,.32,.75,.07,.27,.11,.55,.11,.83Zm-1.21,0c0-.26-.05-.51-.15-.75s-.24-.44-.41-.61-.38-.31-.61-.41-.49-.15-.75-.15-.52,.05-.75,.15c-.23,.1-.44,.24-.61,.41-.17,.17-.31,.38-.41,.61s-.15,.49-.15,.75,.05,.51,.15,.75c.1,.23,.24,.44,.41,.61s.38,.31,.61,.42c.23,.1,.49,.15,.75,.15s.52-.05,.75-.15,.44-.24,.61-.42c.17-.17,.31-.38,.41-.61,.1-.23,.15-.48,.15-.75Z"/><path class="cls-2" d="M30.05,46.44h-1.15v-4.53h.28l.38,.44c.19-.17,.4-.3,.63-.39,.24-.09,.48-.14,.74-.14,.28,0,.54,.05,.78,.16s.46,.25,.64,.44,.33,.4,.43,.65c.11,.25,.16,.51,.16,.79v2.59h-1.15v-2.59c0-.12-.02-.23-.07-.34s-.11-.2-.19-.28-.17-.14-.27-.19c-.1-.05-.22-.07-.33-.07s-.24,.02-.34,.07c-.11,.04-.2,.11-.28,.19s-.14,.17-.19,.28-.07,.22-.07,.34v2.59Z"/><path class="cls-2" d="M35.56,45.34s.09,.02,.13,.03c.05,0,.09,0,.14,0,.11,0,.22-.02,.33-.05,.1-.03,.2-.08,.29-.13,.09-.06,.17-.13,.25-.21,.07-.08,.13-.18,.17-.28l.85,.85c-.11,.15-.23,.29-.37,.41-.14,.12-.29,.22-.45,.31-.16,.08-.33,.15-.51,.19-.18,.04-.36,.07-.55,.07-.32,0-.62-.06-.9-.18-.28-.12-.53-.28-.74-.5-.21-.21-.38-.46-.5-.75s-.18-.61-.18-.96,.06-.68,.18-.98c.12-.3,.29-.55,.5-.76,.21-.21,.46-.37,.74-.49,.28-.12,.58-.17,.9-.17,.19,0,.37,.02,.55,.07,.18,.04,.35,.11,.51,.19,.16,.08,.31,.19,.46,.31,.14,.12,.26,.26,.37,.41l-2.17,2.61Zm.59-2.38c-.05-.02-.11-.03-.16-.04-.05,0-.11,0-.16,0-.16,0-.31,.03-.45,.09s-.26,.14-.36,.25c-.1,.11-.18,.24-.24,.39-.06,.15-.09,.32-.09,.51,0,.04,0,.09,0,.14,0,.05,.01,.11,.02,.16s.02,.11,.04,.16c.01,.05,.03,.1,.05,.14l1.34-1.78Z"/></g><g><path class="cls-2" d="M42.44,45.4c-.14,0-.26-.05-.36-.14-.1-.1-.14-.22-.14-.36,0-.13,.04-.24,.13-.34,.08-.1,.19-.15,.31-.17,.09-.01,.16-.05,.21-.12,.05-.06,.08-.14,.08-.24v-.41c0-.09-.03-.16-.08-.22-.05-.06-.12-.1-.21-.12-.12-.02-.22-.08-.31-.18-.09-.1-.13-.21-.13-.34,0-.12,.04-.23,.13-.32,.08-.09,.19-.15,.31-.17,.09-.01,.16-.05,.21-.12,.05-.06,.08-.14,.08-.24v-.41c0-.1-.03-.18-.1-.25-.06-.06-.15-.1-.25-.1h-.26c-.1,0-.18,.03-.25,.1-.07,.06-.1,.15-.1,.25v4.7c0,.14-.05,.26-.15,.36-.1,.1-.22,.15-.36,.15s-.26-.05-.36-.15c-.1-.1-.14-.22-.14-.36v-4.94c0-.31,.09-.58,.27-.8,.18-.22,.43-.33,.74-.33h.93c.31,0,.56,.11,.75,.33s.29,.48,.29,.8v2.99c0,.16-.03,.3-.09,.44-.06,.13-.14,.25-.24,.35s-.22,.18-.35,.24c-.14,.06-.28,.08-.43,.08h-.14Zm2.16-1.64c-.14,0-.26-.05-.36-.14-.1-.1-.15-.22-.15-.36s.05-.26,.15-.36,.22-.15,.36-.15h3.65c.14,0,.26,.05,.36,.15,.1,.1,.14,.22,.14,.36s-.05,.26-.14,.36c-.1,.1-.22,.14-.36,.14h-3.65Zm.27-2.32c-.14,0-.25-.05-.35-.15-.1-.1-.15-.22-.15-.36s.05-.26,.15-.36c.1-.1,.22-.14,.35-.14h3.1c.14,0,.26,.05,.36,.14,.1,.1,.15,.21,.15,.36s-.05,.26-.15,.36c-.1,.1-.22,.15-.36,.15h-3.1Zm2.17,2.69c.14,0,.27,.03,.39,.08,.12,.05,.23,.12,.33,.21,.09,.09,.17,.2,.22,.32s.08,.26,.08,.4v.72c0,.14-.03,.27-.08,.4s-.13,.23-.22,.32c-.09,.09-.2,.17-.33,.22-.12,.05-.25,.08-.39,.08h-1.23c-.14,0-.28-.03-.4-.08-.12-.05-.23-.13-.32-.22-.09-.09-.16-.2-.21-.32s-.08-.25-.08-.4v-.72c0-.29,.1-.53,.29-.72,.2-.2,.44-.29,.72-.29h1.23Zm-.97-2.01c0,.14-.05,.26-.14,.36-.1,.1-.22,.14-.36,.14s-.26-.05-.36-.14c-.1-.1-.15-.21-.15-.36h0c0-.15,.05-.27,.15-.37,.1-.1,.22-.14,.36-.14s.26,.05,.36,.14c.1,.1,.14,.22,.14,.36h0Zm-.05,3.04c-.14,0-.2,.07-.2,.2v.31c0,.14,.07,.2,.2,.2h.82c.06,0,.11-.02,.14-.06s.06-.09,.06-.14v-.31c0-.06-.02-.11-.06-.14s-.09-.06-.14-.06h-.82Zm.91-5.43c0,.14-.05,.26-.14,.36-.1,.1-.22,.15-.36,.15s-.26-.05-.36-.15-.15-.22-.15-.36h0c0-.15,.05-.27,.15-.37,.1-.09,.22-.14,.36-.14s.26,.05,.36,.14c.1,.1,.14,.21,.14,.35h0Zm.87,2.41c0,.14-.05,.26-.15,.36-.1,.1-.22,.14-.36,.14s-.26-.05-.36-.14-.14-.21-.14-.36h0c0-.15,.05-.27,.14-.37s.22-.14,.36-.14,.26,.05,.36,.14c.1,.1,.15,.22,.15,.36h0Z"/><path class="cls-2" d="M50.21,43.29c-.14,0-.25-.06-.35-.16s-.14-.21-.14-.35c0-.14,.05-.26,.14-.36,.1-.1,.21-.15,.35-.15,.13,0,.24-.05,.33-.14,.09-.08,.13-.19,.13-.31v-.37c0-.12-.05-.23-.14-.32s-.2-.13-.32-.13h-.09c-.14,0-.26-.05-.36-.15s-.15-.22-.15-.36,.05-.26,.15-.36c.1-.1,.22-.14,.36-.14h2.04c.14,0,.26,.05,.36,.14s.14,.22,.14,.36-.05,.26-.14,.36c-.1,.1-.22,.15-.36,.15h-.1c-.12,0-.23,.04-.31,.13-.09,.09-.13,.19-.13,.32v.37c0,.12,.04,.22,.13,.31,.09,.09,.19,.13,.31,.14,.14,0,.26,.05,.36,.15,.1,.1,.14,.22,.14,.36s-.05,.25-.14,.35-.22,.15-.36,.16c-.12,0-.23,.04-.31,.13-.09,.09-.13,.2-.13,.33v.33c0,.11,.04,.21,.13,.28,.09,.07,.18,.1,.29,.08l.13-.02c.14-.03,.27,0,.38,.08,.11,.08,.18,.19,.21,.33,.02,.14,0,.26-.08,.37-.08,.11-.18,.19-.33,.21l-2.22,.42c-.14,.03-.27,0-.38-.07-.11-.08-.18-.19-.21-.33s0-.27,.08-.38c.08-.11,.19-.18,.33-.21l.31-.05c.12-.03,.22-.09,.3-.18s.12-.2,.12-.32v-.52c0-.13-.04-.24-.13-.33s-.2-.13-.33-.13Zm3.96,.99c.06-.12,.16-.2,.3-.24,.13-.04,.27-.03,.4,.04,.12,.07,.2,.17,.24,.3s.03,.26-.04,.38l-1.1,2.04c-.06,.12-.16,.2-.3,.24-.14,.04-.26,.03-.39-.04-.12-.06-.2-.16-.25-.3-.04-.14-.03-.26,.03-.38l1.1-2.04Zm2.66,.81c0,.12,.04,.23,.13,.32,.09,.09,.2,.13,.33,.13h.65c.14,0,.26,.05,.36,.15,.1,.1,.15,.22,.15,.36s-.05,.26-.15,.36c-.1,.1-.22,.14-.36,.14h-.96c-.16,0-.32-.03-.45-.09-.14-.06-.26-.14-.37-.25-.11-.1-.19-.23-.25-.37s-.09-.3-.09-.46v-1.6c0-.13-.04-.24-.13-.33-.09-.09-.2-.13-.33-.13h-1.74c-.14,0-.26-.05-.36-.15-.1-.1-.15-.22-.15-.35,0-.14,.05-.26,.15-.36,.1-.1,.22-.15,.36-.15h4.13c.14,0,.26,.05,.36,.15,.1,.1,.15,.22,.15,.36s-.05,.25-.15,.35-.22,.15-.36,.15h-.45c-.13,0-.24,.04-.33,.13s-.13,.2-.13,.33v1.3Zm-2.62-4.07c-.14,0-.26-.05-.36-.14-.1-.09-.14-.21-.14-.35s.05-.26,.14-.36c.1-.1,.22-.15,.36-.15h2.93c.14,0,.26,.05,.36,.15,.1,.1,.14,.22,.14,.36s-.05,.26-.14,.35c-.1,.09-.22,.14-.36,.14h-2.93Z"/></g></g></g></g></svg>