<svg xmlns="http://www.w3.org/2000/svg" viewBox="0 0 103.26 103.02"><defs><style>.cls-1{fill:#2d5d5e;}</style></defs><g id="圖層_2" data-name="圖層 2"><g id="圖層_1-2" data-name="圖層 1"><path class="cls-1" d="M79,27.85c3.2.48,6.88,1,10.55,1.62a7.51,7.51,0,0,1,2.92.91c1.43,1,3.57,2.13,3.74,3.43s-1.3,3.49-2.64,4.34a139.63,139.63,0,0,1-13.09,7.2c-1.8.88-2.76,1.57-2.36,3.81.61,3.51.81,7.1,1.17,10.45,3.88-1.2,7.58-2.59,11.4-3.46a10.16,10.16,0,0,1,12.55,10.11A27.05,27.05,0,0,1,103,72a12.17,12.17,0,0,1-14.43,9.3c-.53-.09-1.07-.1-1.13.37-1.36,1.75-2.77,3.46-4.06,5.26a2.92,2.92,0,0,0-.54,1.86A3.69,3.69,0,0,1,80,93.1a2.43,2.43,0,0,0-1.45,1.49c-1,5.12-4.28,7.47-9.26,8.08A42.9,42.9,0,0,1,41,96.52c-.47-.29-1-.55-1.49-.84-2.88,2.74-5.92,4-9.55,1.27-.38-.28-1.33,0-1.93.22A9.58,9.58,0,0,1,15.6,91.41c-1-3.13-.28-4.57,2.89-5.38,1.89-.47,2.23-1.35,1.2-3.37-1.33-2.61-2.71-5.2-4.07-7.79a1.67,1.67,0,0,1-.28-.65c-.05-4-2.93-5.87-5.68-8.07A25,25,0,0,1,.46,52C-1.26,44.56,1.91,38.59,9.09,36a10.76,10.76,0,0,1,4.13-1c3.78.25,5.5-2,7.4-4.77,6.72-9.78,14.7-18.4,24.87-24.7C51.44,1.74,57.8-.79,65.11.22c6.35.89,10.48,4.4,11.74,10.52C78,16.28,78.29,22,79,27.85Z"/></g></g></svg>